PathFileType   4   (X/Y/Z)																																																																																																																						
DataRate	CameraRate	NumFrames	NumMarkers	Units	OrigDataRate	OrigDataStartFrame	OrigNumFrames																																																																																																															
120	120	5	37	mm	120	15	116																																																																																																															
Frame#	Time	Sternum	R.Acromium	L.Acromium	Top.Head	R.ASIS	L.ASIS	V.Sacral	R.Thigh.Upper	R.Thigh.Front	R.Thigh.Rear	R.Knee.Lat	R.Knee.Med	R.Shank.Upper	R.Shank.Front	R.Shank.Rear	R.Ankle.Lat	R.Ankle.Med	R.Heel	R.Midfoot.Sup	R.Midfoot.Lat	R.Toe.Lat	R.Toe.Med	R.Toe.Tip	L.Thigh.Upper	L.Thigh.Front	L.Thigh.Rear	L.Knee.Lat	L.Knee.Med	L.Shank.Upper	L.Shank.Front	L.Shank.Rear	L.Ankle.Lat	L.Ankle.Med	L.Heel	L.Midfoot.Sup	L.Midfoot.Lat	L.Toe.Lat	L.Toe.Med	L.Toe.Tip																																																																														
 	 	X1	Y1	Z1	X2	Y2	Z2	X3	Y3	Z3	X4	Y4	Z4	X5	Y5	Z5	X6	Y6	Z6	X7	Y7	Z7	X8	Y8	Z8	X9	Y9	Z9	X10	Y10	Z10	X11	Y11	Z11	X12	Y12	Z12	X13	Y13	Z13	X14	Y14	Z14	X15	Y15	Z15	X16	Y16	Z16	X17	Y17	Z17	X18	Y18	Z18	X19	Y19	Z19	X20	Y20	Z20	X21	Y21	Z21	X22	Y22	Z22	X23	Y23	Z23	X24	Y24	Z24	X25	Y25	Z25	X26	Y26	Z26	X27	Y27	Z27	X28	Y28	Z28	X29	Y29	Z29	X30	Y30	Z30	X31	Y31	Z31	X32	Y32	Z32	X33	Y33	Z33	X34	Y34	Z34	X35	Y35	Z35	X36	Y36	Z36	X37	Y37	Z37	X38	Y38	Z38	X39	Y39	Z39
																																																																																																																						
15	0.25	795.7095467	-0.000992919	1.25E+03	683.9996814	-160.4625222	1370.481307	687.9776541	163.6853836	1383.82308	788.0578983	-9.995724821	1621.91548	780.3747077	-119.563877	908.0219224	785.2496575	121.1976851	899.9057812	602.6737842	-5.695750883	931.2840799	765.4583027	-151.852957	654.9550432	823.2557263	-72.89581202	616.0160111	779.2649072	-144.0380039	555.3517637	763.0441396	-128.7803171	478.9399531	764.7090437	-28.27664901	465.1375951	722.0854453	-139.9773559	428.9954901	741.6410276	-92.759033	359.8916587	675.2533543	-148.0192813	370.2035231	489.4670286	-126.2596959	206.6343718	503.3998291	-48.83628676	209.7771126	442.1046369	-81.79932302	251.3094	514.8549843	-50.48617332	146.4670085	497.3623258	-145.6838404	141.6779213	518.967737	-153.7519611	62.31870256	530.0303776	-57.55224411	66.36918866	557.6033114	-85.7250635	19.86805635	743.4388825	155.8898652	659.2699272	813.4747982	93.1736068	637.103876	751.7265319	143.1256019	569.1827276	749.6125646	130.2344758	459.2998061	750.504433	33.90932835	460.0632114	745.9597683	146.028905	389.1831677	778.5532255	97.96343807	341.4232601	726.4533589	155.397025	353.9299557	707.1359086	125.837295	82.0575302	713.1522549	46.58044596	101.664095	636.4081099	79.29350631	71.29077272	789.3059365	55.87355549	68.78321122	773.0031311	143.3687015	69.29700913	828.4466365	152.6622596	46.91922181	843.5578493	62.03409965	46.42501796	887.2061922	84.48225282	45.78606299
16	0.25833	804.2609534	-0.000992919	1.25E+03	692.6855882	-160.4625222	1371.468695	696.6785827	163.6853836	1384.805979	797.0268824	-9.995724821	1622.785527	788.5558129	-119.563877	908.9325581	793.423937	121.1976851	900.812321	610.874511	-5.695750883	932.3441175	777.683955	-151.852957	658.0331045	836.4238216	-72.89581202	620.5308583	793.9420031	-144.0380039	558.8004915	779.6100389	-128.7803171	482.0119969	781.6147231	-28.27664901	468.2548812	739.8974483	-139.9773559	431.0666103	761.1618797	-92.759033	362.4693488	694.5387533	-148.0192813	371.1305701	512.8687526	-126.2596959	203.0013433	526.7192724	-48.83628676	206.4888707	463.2954283	-81.79932302	245.0275927	541.3035603	-50.48617332	144.0361502	524.0782181	-145.6838404	138.3602324	549.7070864	-153.7519611	60.20755802	560.548505	-57.55224411	64.8175577	590.4595653	-85.7250635	19.78478679	749.3064018	155.8898652	659.4510514	819.0328669	93.1736068	636.3299922	756.362188	143.1256019	569.2590089	752.7468098	130.2344758	459.4152365	753.6490272	33.90932835	460.1663827	748.4522864	146.028905	389.3473744	780.6977034	97.96343807	341.3517985	728.6901277	155.397025	354.236891	707.3968775	125.837295	82.51207217	713.55559	46.58044596	102.0743846	636.6867425	79.29350631	71.79843169	789.5833729	55.87355549	69.21896748	773.2808109	143.3687015	69.74043203	828.7137867	152.6622596	47.33657385	843.8247654	62.03409965	46.83526374	887.4728029	84.48225282	46.17578241
17	0.26667	812.7714432	-0.000992919	1.25E+03	701.3260334	-160.4625222	1372.322181	705.3335223	163.6853836	1385.655117	805.9404321	-9.995724821	1623.525452	796.7119059	-119.563877	909.7182611	801.5738636	121.1976851	901.5943304	619.0484297	-5.695750883	933.264713	789.7194296	-151.852957	661.0130272	849.3397087	-72.89581202	624.9268426	808.3469236	-144.0380039	562.197785	795.8561948	-128.7803171	485.0883836	798.1894386	-28.27664901	471.3831668	757.4281511	-139.9773559	433.0704083	780.5692748	-92.759033	365.0832866	713.7333312	-148.0192813	371.9107577	536.7512889	-126.2596959	198.8535916	550.5007597	-48.83628676	202.7203475	485.0393642	-81.79932302	238.0358508	568.273853	-50.48617332	141.3065378	551.3724186	-145.6838404	134.7285461	581.0942355	-153.7519611	58.03895759	591.6769726	-57.55224411	63.2152624	623.9253062	-85.7250635	19.825552	755.1370741	155.8898652	659.5273632	824.5399081	93.1736068	635.4522736	760.9553344	143.1256019	569.2470414	755.8339367	130.2344758	459.4631783	756.7463702	33.90932835	460.2018812	750.9149001	146.028905	389.4502348	782.8277273	97.96343807	341.232876	730.9104761	155.397025	354.4772169	707.7391548	125.837295	82.90610375	714.0329649	46.58044596	102.4253701	637.0480738	79.29350631	72.23268597	789.9439293	55.87355549	69.6076882	773.6415233	143.3687015	70.13400774	829.0678245	152.6622596	47.71364224	844.1786533	62.03409965	47.20783199	887.8264925	84.48225282	46.53535201
18	0.275	821.2582277	-0.000992919	1.25E+03	709.9412662	-160.4625222	1373.033096	713.9630625	163.6853836	1386.361724	814.8252093	-9.995724821	1624.123945	804.8534034	-119.563877	910.3716768	809.7099274	121.1976851	902.2444966	627.2057126	-5.695750883	934.0369284	801.5590048	-151.852957	663.8654775	861.9961266	-72.89581202	629.1646892	822.461782	-144.0380039	565.5063929	811.7537425	-128.7803171	488.1292904	814.4026242	-28.27664901	474.4815646	774.6502392	-139.9773559	434.9727998	799.8227458	-92.759033	367.7113308	732.8119045	-148.0192813	372.5284735	561.1070292	-126.2596959	194.234161	574.7341697	-48.83628676	198.5121034	507.3643699	-81.79932302	230.3986259	595.7180435	-50.48617332	138.3216555	579.1978823	-145.6838404	130.83749	613.0316118	-153.7519611	55.87110994	623.3183122	-57.55224411	61.61325666	657.8704255	-85.7250635	20.0347351	760.9388419	155.8898652	659.4899522	830.003256	93.1736068	634.4605691	765.5122143	143.1256019	569.138013	758.8781503	130.2344758	459.4351666	759.8006787	33.90932835	460.1612233	753.3517032	146.028905	389.483061	784.9478067	97.96343807	341.0575669	733.1184801	155.397025	354.6419123	708.1676576	125.837295	83.22850785	714.5892706	46.58044596	102.7061025	637.4968142	79.29350631	72.58321586	790.3923088	55.87355549	69.93728241	774.089975	143.3687015	70.4658342	829.5132058	152.6622596	48.0378795	844.6239651	62.03409965	47.53000016	888.2717119	84.48225282	46.85154358
19	0.28333	829.7391414	-0.000992919	1.25E+03	718.5523155	-160.4625222	1373.596036	722.5885877	163.6853836	1386.920287	823.7089464	-9.995724821	1624.572805	812.9903648	-119.563877	910.8875114	817.8421681	121.1976851	902.7575122	635.3564476	-5.695750883	934.6559286	813.1965721	-151.852957	666.5628112	874.3860098	-72.89581202	633.2065058	836.2685355	-144.0380039	568.6898316	827.2735857	-128.7803171	491.0949286	830.2235123	-28.27664901	477.5090931	791.5365278	-139.9773559	436.7391606	818.8820773	-92.759033	370.331471	751.7500647	-148.0192813	372.9678701	585.9314091	-126.2596959	189.1864795	599.4122934	-48.83628676	193.9051137	530.2939874	-81.79932302	222.1800412	623.597232	-50.48617332	135.1223323	607.5155421	-145.6838404	126.7373632	645.4371996	-153.7519611	53.75361639	655.3911313	-57.55224411	60.0550208	692.1864411	-85.7250635	20.44786033	766.7196403	155.8898652	659.33371	835.4303736	93.1736068	633.349129	770.0398098	143.1256019	568.9270446	761.8853127	130.2344758	459.3267277	762.8178194	33.90932835	460.0399233	755.7672328	146.028905	389.4412251	787.0614809	97.96343807	340.8201159	735.3176623	155.397025	354.7266168	708.6789219	125.837295	83.47367733	715.2215763	46.58044596	102.9109477	638.0292425	79.29350631	72.8460437	790.9247406	55.87355549	70.20031082	774.6224062	143.3687015	70.72884122	830.0456663	152.6622596	48.30095923	845.1564263	62.03409965	47.79309971	888.804174	84.48225282	47.11470038
